<?xml version="1.0" encoding="utf-8"?>
<svg version="1.1" xmlns:xlink="http://www.w3.org/1999/xlink" width="30px" height="30px" xmlns="http://www.w3.org/2000/svg">
  <g transform="matrix(1 0 0 1 -315 -1237 )">
    <path d="M 21.4285714285714 6.42857142857143  L 28.3928571428571 6.42857142857143  C 28.8392857142857 6.42857142857143  29.21875 6.58482142857143  29.53125 6.89732142857143  C 29.84375 7.20982142857142  30 7.58928571428571  30 8.03571428571429  L 30 28.3928571428571  C 30 28.8392857142857  29.84375 29.21875  29.53125 29.53125  C 29.21875 29.84375  28.8392857142857 30  28.3928571428571 30  L 12.3214285714286 30  C 11.875 30  11.4955357142857 29.84375  11.1830357142857 29.53125  C 10.8705357142857 29.21875  10.7142857142857 28.8392857142857  10.7142857142857 28.3928571428571  L 10.7142857142857 23.5714285714286  L 1.60714285714286 23.5714285714286  C 1.16071428571429 23.5714285714286  0.78125 23.4151785714286  0.46875 23.1026785714286  C 0.15625 22.7901785714286  0 22.4107142857143  0 21.9642857142857  L 0 10.7142857142857  C 0 10.2678571428571  0.111607142857143 9.77678571428571  0.334821428571429 9.24107142857143  C 0.558035714285714 8.70535714285714  0.825892857142857 8.28125  1.13839285714286 7.96875  L 7.96875 1.13839285714286  C 8.28125 0.825892857142856  8.70535714285714 0.558035714285714  9.24107142857143 0.334821428571429  C 9.77678571428572 0.111607142857144  10.2678571428571 0  10.7142857142857 0  L 17.6785714285714 0  C 18.125 0  18.5044642857143 0.156250000000001  18.8169642857143 0.46875  C 19.1294642857143 0.781249999999999  19.2857142857143 1.16071428571428  19.2857142857143 1.60714285714286  L 19.2857142857143 7.09821428571429  C 20.0446428571429 6.65178571428571  20.7589285714286 6.42857142857143  21.4285714285714 6.42857142857143  Z M 19.2857142857143 15  L 19.2857142857143 9.99441964285714  L 14.2801339285714 15  L 19.2857142857143 15  Z M 8.57142857142857 8.57142857142857  L 8.57142857142857 3.56584821428571  L 3.56584821428571 8.57142857142857  L 8.57142857142857 8.57142857142857  Z M 11.0491071428571 15.6696428571429  C 11.2723214285714 15.1339285714286  11.5401785714286 14.7098214285714  11.8526785714286 14.3973214285714  L 17.1428571428571 9.10714285714286  L 17.1428571428571 2.14285714285714  L 10.7142857142857 2.14285714285714  L 10.7142857142857 9.10714285714286  C 10.7142857142857 9.55357142857143  10.5580357142857 9.93303571428571  10.2455357142857 10.2455357142857  C 9.93303571428572 10.5580357142857  9.55357142857143 10.7142857142857  9.10714285714286 10.7142857142857  L 2.14285714285714 10.7142857142857  L 2.14285714285714 21.4285714285714  L 10.7142857142857 21.4285714285714  L 10.7142857142857 17.1428571428571  C 10.7142857142857 16.6964285714286  10.8258928571429 16.2053571428571  11.0491071428571 15.6696428571429  Z M 13 27.8571428571429  L 27.8571428571429 27.8571428571429  L 27.8571428571429 8.57142857142857  L 21.4285714285714 8.57142857142857  L 21.4285714285714 15.5357142857143  C 21.4285714285714 15.9821428571429  21.2723214285714 16.3616071428571  20.9598214285714 16.6741071428571  C 20.6473214285714 16.9866071428571  20.2678571428571 17.1428571428571  19.8214285714286 17.1428571428571  L 13 17.1428571428571  L 13 27.8571428571429  Z " fill-rule="nonzero" fill="#000000" stroke="none" transform="matrix(1 0 0 1 315 1237 )" />
  </g>
</svg>